<?xml version="1.0" standalone="no"?>
<!DOCTYPE svg PUBLIC "-//W3C//DTD SVG 20010904//EN"
 "http://www.w3.org/TR/2001/REC-SVG-20010904/DTD/svg10.dtd">
<svg version="1.0" xmlns="http://www.w3.org/2000/svg"
 width="640.000000pt" height="640.000000pt" viewBox="0 0 640.000000 640.000000"
 preserveAspectRatio="xMidYMid meet">
<metadata>
Created by potrace 1.14, written by Peter Selinger 2001-2017
</metadata>
<g transform="translate(0.000000,640.000000) scale(0.100000,-0.100000)"
fill="#000000" stroke="none">
<path d="M1779 5731 c-6 -15 -17 -46 -26 -71 -9 -25 -21 -51 -26 -57 -5 -7 -6
-13 -3 -13 4 0 1 -10 -6 -22 -7 -13 -13 -25 -14 -28 0 -3 -4 -14 -9 -25 -29
-72 -75 -193 -75 -199 0 -3 -8 -25 -19 -49 -19 -44 -53 -128 -91 -232 -13 -33
-29 -73 -36 -90 -7 -16 -45 -113 -84 -215 -38 -102 -74 -194 -79 -205 -5 -11
-35 -87 -66 -170 -32 -82 -63 -163 -70 -180 -7 -16 -43 -107 -79 -202 -36 -95
-71 -185 -78 -200 -6 -15 -12 -32 -14 -38 -1 -5 -14 -39 -28 -74 -14 -36 -26
-71 -26 -78 0 -7 -4 -13 -10 -13 -5 0 -10 -7 -10 -14 0 -8 -28 -86 -62 -173
-34 -87 -62 -160 -63 -163 0 -5 -20 -54 -48 -120 -6 -14 -11 -27 -12 -30 -1
-7 -36 -97 -78 -205 -44 -110 -54 -138 -56 -147 -1 -5 -12 -33 -26 -64 -14
-31 -25 -60 -25 -65 0 -5 -9 -28 -19 -52 -11 -23 -30 -71 -44 -107 -128 -334
-201 -522 -218 -556 -10 -23 -19 -45 -19 -49 0 -8 -108 -292 -130 -340 -22
-52 -128 -330 -126 -332 7 -7 970 -3 977 4 4 4 28 62 53 128 26 66 50 129 55
140 5 11 14 36 21 55 7 19 16 44 21 55 13 29 200 508 203 520 2 6 8 24 15 40
7 17 24 59 38 95 14 36 29 67 34 70 4 3 422 5 928 5 507 0 921 2 921 5 0 3
-19 52 -41 110 -22 58 -49 130 -60 160 -11 30 -24 64 -29 75 -5 11 -23 58 -40
105 -18 47 -37 99 -44 115 -7 17 -18 44 -24 60 -16 47 -82 217 -97 251 l-13
31 -576 -1 c-408 -1 -576 2 -576 10 0 6 18 55 40 110 23 54 40 99 40 99 -2 0
3 14 61 165 28 74 52 141 52 148 0 6 4 12 9 12 4 0 8 8 8 18 0 10 3 22 7 26 4
3 8 14 9 22 1 9 9 30 17 47 8 18 31 77 52 132 20 55 43 114 51 132 8 17 14 37
14 45 0 8 4 18 9 23 5 6 16 35 26 65 10 30 21 60 25 65 4 6 17 37 28 70 18 53
46 128 82 220 6 17 11 31 11 32 0 2 7 19 15 39 14 34 13 55 -6 99 -4 11 -27
70 -50 130 -23 61 -45 119 -50 130 -4 11 -18 47 -30 80 -12 33 -28 74 -35 90
-6 17 -21 55 -33 85 -11 30 -24 64 -28 75 -4 11 -8 22 -9 25 -1 3 -7 18 -13
33 -7 16 -12 31 -12 35 -1 4 -9 25 -20 47 -11 22 -19 45 -20 50 0 9 -34 98
-66 172 -8 17 -14 35 -14 41 0 5 -33 9 -76 9 -72 -1 -77 -2 -85 -26z"/>
<path d="M2046 5736 c5 -20 30 -86 55 -151 7 -16 13 -32 14 -35 1 -3 4 -12 7
-20 12 -30 19 -55 17 -55 -1 0 4 -11 11 -25 7 -13 46 -112 87 -220 40 -107 77
-204 82 -215 5 -11 19 -47 31 -80 12 -33 26 -69 30 -80 9 -22 38 -97 94 -245
37 -98 92 -240 106 -275 4 -11 13 -36 20 -55 7 -19 21 -54 31 -77 11 -24 19
-45 19 -48 0 -7 170 -452 191 -500 12 -28 110 -288 113 -300 2 -5 9 -23 16
-40 7 -16 14 -32 14 -35 1 -5 21 -58 36 -95 4 -11 22 -58 40 -105 18 -47 36
-94 40 -105 5 -11 25 -63 45 -115 20 -52 44 -117 55 -145 10 -27 30 -81 45
-120 15 -38 30 -79 35 -90 5 -11 45 -117 90 -235 45 -118 85 -223 91 -232 5
-10 9 -22 9 -28 0 -6 9 -29 19 -53 10 -23 31 -76 46 -117 15 -41 33 -88 40
-105 7 -16 59 -151 115 -300 57 -148 106 -274 110 -278 7 -8 969 -12 976 -4 3
3 -29 93 -56 152 -4 11 -32 81 -60 155 -28 74 -55 144 -60 155 -16 38 -95 240
-95 245 -2 12 -19 58 -35 95 -10 22 -48 117 -83 210 -36 94 -71 184 -78 200
-7 17 -13 32 -13 35 -2 7 -45 119 -57 145 -5 11 -18 45 -29 75 -11 30 -24 64
-29 75 -5 11 -23 58 -41 105 -17 47 -36 95 -41 108 -21 52 -30 73 -74 187 -26
65 -60 153 -75 195 -25 66 -53 140 -145 375 -28 72 -38 98 -39 105 -1 3 -4 10
-8 15 -3 6 -25 60 -48 120 -54 143 -139 365 -150 390 -11 23 -74 188 -75 195
-1 3 -6 16 -13 30 -6 14 -23 57 -37 95 -14 39 -30 79 -35 90 -4 11 -27 70 -50
130 -48 126 -77 201 -90 230 -4 11 -18 47 -30 80 -12 33 -26 69 -30 80 -5 11
-22 54 -38 95 -17 41 -46 116 -66 166 -20 51 -36 95 -36 99 0 7 -9 28 -49 121
l-23 50 -474 0 -474 1 6 -21z"/>
<path d="M3095 5752 c-3 -3 -1 -10 4 -16 4 -6 18 -38 29 -71 11 -33 27 -76 35
-95 28 -69 30 -75 32 -80 1 -3 9 -22 18 -44 9 -21 17 -44 17 -52 0 -7 4 -15 9
-18 5 -3 12 -17 15 -32 6 -22 82 -225 106 -279 5 -11 21 -51 35 -90 15 -38 33
-84 41 -100 l14 -31 783 1 c430 0 790 -1 800 -3 16 -4 17 -31 15 -441 l-3
-436 -600 -2 c-330 -1 -612 -2 -627 -3 -27 0 -29 -7 -10 -50 5 -14 57 -146
115 -295 58 -148 112 -286 121 -306 8 -20 12 -39 9 -43 -4 -3 -1 -6 5 -6 7 0
12 -6 12 -12 0 -7 17 -54 37 -105 40 -103 28 -94 134 -95 28 -1 12 36 191
-443 33 -88 63 -169 68 -180 14 -34 68 -177 88 -235 27 -74 160 -430 171 -455
5 -11 28 -72 51 -135 53 -143 106 -286 121 -325 7 -16 13 -32 14 -35 1 -3 7
-24 15 -47 l13 -43 264 -1 c322 -1 311 -1 538 0 l185 1 -16 43 c-9 23 -22 56
-29 72 -6 17 -21 55 -33 85 -29 76 -127 328 -165 425 -18 44 -32 82 -32 85 -1
3 -9 22 -18 44 -9 21 -17 42 -17 47 0 5 -4 17 -10 27 -5 9 -68 168 -139 352
-71 184 -139 357 -150 383 -11 26 -20 48 -20 50 1 3 -14 42 -61 164 -22 56
-40 106 -40 111 0 6 136 10 359 10 197 -1 363 2 369 6 7 4 7 17 2 35 -4 16 -6
32 -4 34 3 3 4 119 4 258 -1 140 -1 261 -1 269 0 11 0 203 0 315 0 6 0 100 0
210 0 110 0 209 0 220 0 107 0 523 0 535 0 8 0 80 0 160 0 80 0 152 0 160 1
203 0 425 -4 428 -2 2 0 14 5 26 20 54 104 51 -1435 52 -784 0 -1427 -2 -1430
-4z"/>
</g>
</svg>
